<svg width="56" height="34" viewBox="0 0 56 34" fill="none" xmlns="http://www.w3.org/2000/svg">
<path d="M28.896 11.2C28.6533 11.2075 28.42 11.3083 28.2483 11.4837L23.324 16.3931L20.2907 13.3691C19.4413 12.4843 18.0693 13.8507 18.956 14.6981L22.6576 18.3904C23.0253 18.7581 23.6227 18.7581 23.9923 18.3904L29.5829 12.8147C30.1989 12.2173 29.7453 11.2 28.8979 11.2H28.896ZM0.933333 18.6667H6.53333C7.0504 18.6667 7.46667 19.0829 7.46667 19.6C7.46667 20.1171 7.0504 20.5333 6.53333 20.5333H0.933333C0.416267 20.5333 0 20.1171 0 19.6C0 19.0829 0.416267 18.6667 0.933333 18.6667ZM0.933333 11.2H6.53333C7.0504 11.2 7.46667 11.6163 7.46667 12.1333C7.46667 12.6504 7.0504 13.0667 6.53333 13.0667H0.933333C0.416267 13.0667 0 12.6504 0 12.1333C0 11.6163 0.416267 11.2 0.933333 11.2ZM0.933333 3.73333H6.53333C7.0504 3.73333 7.46667 4.1496 7.46667 4.66667C7.46667 5.18373 7.0504 5.6 6.53333 5.6H0.933333C0.416267 5.6 0 5.18373 0 4.66667C0 4.1496 0.416267 3.73333 0.933333 3.73333ZM45.7333 24.2667C43.1667 24.2667 41.0667 26.3667 41.0667 28.9333C41.0667 31.5 43.1667 33.6 45.7333 33.6C48.3 33.6 50.4 31.5 50.4 28.9333C50.4 26.3667 48.3 24.2667 45.7333 24.2667ZM45.7333 26.1333C47.2901 26.1333 48.5333 27.3765 48.5333 28.9333C48.5333 30.4901 47.2901 31.7333 45.7333 31.7333C44.1765 31.7333 42.9333 30.4901 42.9333 28.9333C42.9333 27.3765 44.1765 26.1333 45.7333 26.1333ZM21.4667 24.2667C18.9 24.2667 16.8 26.3667 16.8 28.9333C16.8 31.5 18.9 33.6 21.4667 33.6C24.0333 33.6 26.1333 31.5 26.1333 28.9333C26.1333 26.3667 24.0333 24.2667 21.4667 24.2667ZM21.4667 26.1333C23.0235 26.1333 24.2667 27.3765 24.2667 28.9333C24.2667 30.4901 23.0235 31.7333 21.4667 31.7333C19.9099 31.7333 18.6667 30.4901 18.6667 28.9333C18.6667 27.3765 19.9099 26.1333 21.4667 26.1333ZM12.1333 0C10.5989 0 9.33333 1.2656 9.33333 2.8V23.3333C9.33333 24.8677 10.5989 26.1333 12.1333 26.1333H15.8667C17.1285 26.152 17.1285 24.248 15.8667 24.2667H12.1333C11.5995 24.2667 11.2 23.8672 11.2 23.3333V2.8C11.2 2.26613 11.5995 1.86667 12.1333 1.86667H36.4C36.9339 1.86667 37.3333 2.26613 37.3333 2.8V24.2667H27.0667C25.8347 24.2667 25.8571 26.152 27.0667 26.1333H40.1333C41.3653 26.1333 41.3541 24.2667 40.1333 24.2667H39.2V7.46667H47.0904L54.1333 18.4725V23.3333C54.1333 23.8672 53.7339 24.2667 53.2 24.2667H51.3333C50.1125 24.2667 50.1125 26.1333 51.3333 26.1333H53.2C54.7344 26.1333 56 24.8677 56 23.3333V18.2C56 18.0227 55.9496 17.8453 55.8544 17.696L48.3877 6.02933C48.216 5.7624 47.9211 5.6 47.6 5.6H39.2V2.8C39.2 1.2656 37.9344 0 36.4 0H12.1333Z" fill="#556146"/>
</svg>
