<svg width="70" height="69" viewBox="0 0 70 69" fill="none" xmlns="http://www.w3.org/2000/svg">
<path d="M35 68.7273C54.33 68.7273 70 53.3421 70 34.3636C70 15.3851 54.33 0 35 0C15.67 0 0 15.3851 0 34.3636C0 53.3421 15.67 68.7273 35 68.7273Z" fill="#556146"/>
<path d="M35 17.1816C30.249 17.1816 29.6543 17.2018 27.7881 17.2823C25.9219 17.3696 24.6572 17.6582 23.543 18.081C22.3945 18.5173 21.417 19.1079 20.4395 20.0609C19.4619 21.014 18.8672 21.9738 18.4229 23.108C17.9922 24.202 17.6982 25.4504 17.6094 27.276C17.5205 29.1082 17.5068 29.6922 17.5068 34.3567C17.5068 39.0213 17.5273 39.6053 17.6094 41.4375C17.6982 43.2631 17.9922 44.5115 18.4229 45.6055C18.8672 46.733 19.4687 47.6928 20.4395 48.6526C21.4102 49.6056 22.3877 50.1962 23.543 50.6325C24.6572 51.0553 25.9287 51.3439 27.7881 51.4312C29.6543 51.5184 30.249 51.5319 35 51.5319C39.751 51.5319 40.3457 51.5117 42.2119 51.4312C44.0713 51.3439 45.3428 51.0553 46.457 50.6325C47.6055 50.1962 48.583 49.6056 49.5606 48.6526C50.5313 47.6995 51.1328 46.7397 51.5772 45.6055C52.0078 44.5115 52.3018 43.2631 52.3906 41.4375C52.4795 39.6053 52.4932 39.0213 52.4932 34.3567C52.4932 29.6922 52.4727 29.1082 52.3906 27.276C52.3018 25.4504 52.0078 24.202 51.5772 23.108C51.1328 21.9805 50.5313 21.0207 49.5606 20.0609C48.5898 19.1079 47.6123 18.5173 46.457 18.081C45.3428 17.6582 44.0713 17.3696 42.2119 17.2823C40.3457 17.2018 39.751 17.1816 35 17.1816ZM35 20.2757C39.6689 20.2757 40.2295 20.2958 42.0752 20.3764C43.7842 20.4569 44.707 20.7321 45.3223 20.9737C46.1426 21.2825 46.7236 21.6583 47.3389 22.2556C47.9473 22.8597 48.3301 23.4302 48.6445 24.2356C48.8838 24.8396 49.1709 25.7457 49.2461 27.4236C49.3281 29.2358 49.3486 29.7794 49.3486 34.3702C49.3486 38.9609 49.3281 39.5046 49.2393 41.3167C49.1504 42.9946 48.8633 43.9007 48.624 44.5048C48.2959 45.3102 47.9268 45.8806 47.3115 46.4847C46.7031 47.082 46.1084 47.4579 45.3018 47.7666C44.6865 48.0015 43.75 48.2834 42.041 48.3572C40.1816 48.4378 39.6348 48.4579 34.9521 48.4579C30.2695 48.4579 29.7227 48.4378 27.8633 48.3505C26.1543 48.2633 25.2178 47.9814 24.6025 47.7465C23.7754 47.4243 23.2012 47.0619 22.5928 46.4578C21.9775 45.8605 21.5879 45.2766 21.2803 44.4846C21.041 43.8806 20.7539 42.9611 20.665 41.2832C20.5967 39.4777 20.5762 38.9207 20.5762 34.35C20.5762 29.7727 20.5967 29.2156 20.665 27.3901C20.7539 25.7121 21.0342 24.7926 21.2803 24.1886C21.5879 23.3698 21.9775 22.8127 22.5928 22.2087C23.2012 21.6113 23.7754 21.2221 24.6025 20.92C25.2178 20.6851 26.1338 20.4032 27.8428 20.316C29.7021 20.2489 30.249 20.2287 34.9316 20.2287L35 20.2757ZM35 25.5376C30.0371 25.5376 26.0107 29.4908 26.0107 34.3635C26.0107 39.2361 30.0371 43.1893 35 43.1893C39.9629 43.1893 43.9893 39.2361 43.9893 34.3635C43.9893 29.4908 39.9629 25.5376 35 25.5376ZM35 40.0885C31.7803 40.0885 29.1689 37.5246 29.1689 34.3635C29.1689 31.2023 31.7803 28.6384 35 28.6384C38.2197 28.6384 40.8311 31.2023 40.8311 34.3635C40.8311 37.5246 38.2197 40.0885 35 40.0885ZM46.4434 25.1953C46.4434 26.3363 45.5 27.2558 44.3447 27.2558C43.1826 27.2558 42.2461 26.3296 42.2461 25.1953C42.2461 24.0611 43.1895 23.1349 44.3447 23.1349C45.5 23.1282 46.4434 24.0544 46.4434 25.1953Z" fill="white"/>
</svg>
