<svg width="29" height="36" viewBox="0 0 29 36" fill="none" xmlns="http://www.w3.org/2000/svg">
<path d="M18.9615 6.69231C20.8096 6.69231 22.3077 5.19421 22.3077 3.34615C22.3077 1.4981 20.8096 0 18.9615 0C17.1135 0 15.6154 1.4981 15.6154 3.34615C15.6154 5.19421 17.1135 6.69231 18.9615 6.69231ZM7.9255 22.1313L6.89377 24.5378H2.23077C0.998966 24.5378 0 25.5367 0 26.7685C0 28.0003 0.998966 28.9993 2.23077 28.9993H7.62993C8.97187 28.9993 10.18 28.2018 10.7049 26.9714L11.3177 25.5409L10.5738 25.1017C9.36644 24.3886 8.47832 23.3331 7.9255 22.1313ZM26.7692 15.6147H23.6998L21.8831 11.9025C21.0118 10.1214 19.4119 8.81921 17.5764 8.35144L12.6213 6.87774C10.6484 6.4037 8.59404 6.8394 6.98579 8.0726L4.22034 10.1925C3.24228 10.9419 3.05685 12.3417 3.80764 13.3198C4.55844 14.2978 5.95755 14.4812 6.9349 13.7325L9.70175 11.6125C10.2364 11.2019 10.9175 11.0549 11.4634 11.1845L12.4881 11.4892L9.87673 17.5812C8.99697 19.6363 9.78541 22.0435 11.7101 23.1798L17.6342 26.6772L15.7193 32.793C15.3512 33.9683 16.0058 35.2197 17.1811 35.5877C17.4035 35.6575 17.628 35.6909 17.8489 35.6909C18.7977 35.6909 19.6775 35.0795 19.9765 34.1259L22.1822 27.0808C22.5942 25.6329 21.9807 24.0777 20.6737 23.2892L16.4045 20.7699L18.5872 15.3128L20.0002 18.201C20.5579 19.3401 21.7375 20.0755 23.0055 20.0755H26.7692C28.001 20.0755 29 19.0766 29 17.8448C29 16.613 28.001 15.6147 26.7692 15.6147Z" fill="#556146"/>
</svg>
